<?xml version="1.0" standalone="no"?>
<!DOCTYPE svg PUBLIC "-//W3C//DTD SVG 20010904//EN"
 "http://www.w3.org/TR/2001/REC-SVG-20010904/DTD/svg10.dtd">
<svg version="1.0" xmlns="http://www.w3.org/2000/svg"
 width="860.000000pt" height="860.000000pt" viewBox="0 0 860.000000 860.000000"
 preserveAspectRatio="xMidYMid meet">
<metadata>
Created by potrace 1.11, written by Peter Selinger 2001-2013
</metadata>
<g transform="translate(0.000000,860.000000) scale(0.100000,-0.100000)"
fill="#000000" stroke="none">
<path d="M2223 7041 c-70 -102 -130 -188 -133 -191 -4 -3 -9 -12 -13 -20 -3
-8 -64 -98 -134 -200 l-128 -184 -52 -2 c-39 -1 -53 3 -53 12 0 8 -6 15 -12
15 -20 2 -102 -2 -123 -6 -11 -2 -25 -4 -30 -4 -6 -1 -16 -13 -23 -28 -7 -16
-18 -37 -25 -48 -39 -63 -145 -231 -159 -253 -10 -15 -22 -36 -28 -47 -6 -11
-24 -40 -40 -65 -16 -25 -37 -58 -46 -75 -9 -16 -41 -66 -70 -111 -30 -45 -54
-84 -54 -88 0 -4 -5 -12 -10 -19 -18 -21 -150 -239 -150 -247 0 -5 -4 -10 -8
-12 -4 -1 -53 -76 -107 -166 -55 -90 -107 -174 -115 -187 -39 -61 -106 -172
-113 -185 -4 -8 -15 -27 -25 -42 -9 -14 -39 -63 -67 -108 -27 -45 -58 -94 -67
-108 -10 -15 -21 -33 -25 -41 -8 -17 -190 -316 -253 -415 -41 -65 -43 -70 -29
-95 8 -14 22 -26 31 -26 8 0 27 -7 42 -14 l26 -14 2 -206 c0 -113 0 -333 -1
-487 -2 -179 1 -284 8 -288 5 -4 225 -55 488 -115 263 -60 510 -121 548 -135
39 -13 181 -63 318 -110 207 -72 294 -108 531 -225 270 -132 297 -147 528
-309 228 -160 256 -183 454 -376 116 -113 213 -204 215 -203 2 1 3 0 1 -2 -1
-3 18 -26 44 -52 32 -32 52 -45 65 -42 10 3 19 9 19 14 0 5 7 6 15 3 8 -4 15
-2 15 3 0 5 8 9 18 9 30 1 271 87 266 96 -3 4 1 5 9 2 7 -2 27 1 43 7 16 7 34
13 41 15 33 6 150 48 161 57 6 5 12 7 12 4 0 -5 118 32 160 50 8 3 20 7 25 8
49 12 591 201 593 207 2 4 7 6 11 3 13 -7 312 101 304 110 -5 4 -2 5 4 1 15
-8 93 13 93 26 0 5 4 7 9 4 9 -6 72 12 81 23 3 3 10 6 15 6 29 0 213 69 208
78 -3 6 -1 7 5 3 14 -8 92 14 92 26 0 5 5 6 10 3 6 -3 16 -3 23 2 6 4 21 9 32
10 10 2 22 7 25 11 3 4 16 8 30 10 14 1 27 7 28 12 2 6 7 8 11 5 11 -6 173 50
166 57 -3 3 2 5 12 5 40 0 54 3 49 12 -4 5 4 7 16 3 13 -3 19 -1 15 5 -5 7 0
9 13 6 12 -3 20 0 20 8 0 7 3 10 6 6 4 -3 23 1 43 9 20 9 47 18 61 20 14 3 26
9 28 14 2 5 10 6 18 3 8 -3 14 0 14 7 0 6 4 9 9 6 8 -5 100 23 111 34 3 3 10
5 15 6 28 2 75 17 75 24 0 4 6 7 13 7 20 -1 107 27 107 35 0 4 7 5 15 2 8 -4
15 -1 15 6 0 6 4 9 9 6 12 -8 71 14 71 26 0 5 5 6 10 3 6 -3 16 -3 23 2 6 4
21 9 32 10 11 2 22 8 23 13 2 6 7 8 12 5 5 -3 21 0 37 7 15 6 31 12 36 13 4 2
9 4 12 5 8 4 24 7 41 9 9 0 12 6 8 13 -4 7 -3 8 4 4 6 -4 26 0 44 7 18 8 38
15 43 16 39 8 62 15 73 24 6 5 12 6 12 2 0 -4 7 -1 17 6 9 8 18 13 20 12 11
-9 33 -1 27 9 -4 7 -3 8 4 4 6 -4 26 0 44 7 36 15 43 17 59 17 5 0 7 4 4 10
-3 5 0 7 9 4 8 -3 21 -2 28 2 7 5 19 9 26 10 8 2 21 6 30 10 22 9 29 11 48 13
8 0 13 5 10 10 -3 4 2 8 12 7 24 -1 172 47 172 56 0 4 7 5 15 2 8 -4 15 -2 15
4 0 5 6 10 13 9 29 -1 48 4 44 11 -3 4 8 8 25 8 17 1 33 5 37 10 3 5 12 9 19
10 37 3 43 5 39 12 -3 4 8 8 25 8 17 1 34 7 38 13 4 7 10 12 14 11 6 -2 38 7
56 15 3 1 33 10 67 20 34 10 60 21 58 26 -3 4 3 6 12 5 18 -3 104 22 113 33 3
3 10 6 15 6 22 0 105 30 105 38 0 4 5 5 10 2 6 -4 17 -2 25 5 11 9 14 100 14
533 l0 522 -387 380 -387 380 -473 348 -474 348 -367 183 c-202 101 -379 191
-392 200 -14 8 -41 19 -60 22 -36 7 -71 22 -79 34 -3 4 -149 80 -326 168
l-320 160 -525 170 c-545 176 -657 213 -674 217 -5 1 -17 5 -25 8 -45 19 -97
34 -112 31 -10 -1 -18 1 -18 6 0 4 -21 11 -47 16 -67 11 -67 11 -73 14 -7 4
-51 10 -77 12 -13 1 -23 6 -23 10 0 4 -3 7 -7 6 -10 -2 -110 17 -115 22 -2 1
-14 4 -28 6 -29 4 -63 11 -70 15 -3 1 -9 3 -15 4 -5 1 -23 4 -40 8 -64 15 -81
19 -100 22 -11 2 -20 4 -20 5 0 3 -79 21 -110 25 -11 1 -20 3 -20 4 0 2 -7 4
-15 6 -8 2 -35 8 -59 13 -25 6 -49 8 -55 5 -5 -3 -6 -1 -2 5 4 8 -1 12 -13 13
-24 2 -17 0 -106 22 -38 9 -81 18 -95 20 -14 2 -32 7 -40 10 -8 3 -72 19 -142
35 l-127 29 -128 -186z"/>
</g>
</svg>
