# Rhino

g 3D__BLDG__REF
v -16.914532 -0.25 19.539539
v -16.914532 1.7763568e-15 19.539539
v -16.914532 -0.25 -12.864882
v -16.914532 1.7763568e-15 -12.864882
v -11.100437 -0.25 -12.865074
v -11.100437 1.7763568e-15 -12.865074
v -8.3280706 -0.25 19.539953
v -8.3280706 1.7763568e-15 19.539953
v -6.7681875 -0.25 -13.52567
v -6.7681875 1.7763568e-15 -13.52567
v -2.8599679 -0.25 -14.893173
v -2.8599679 1.7763568e-15 -14.893173
v 0.22298047 -0.25 18.381914
v 0.22298047 1.7763568e-15 18.381914
v 0.8882544 -0.25 -17.012915
v 0.8882544 1.7763568e-15 -17.012915
v 5.4058127 -0.25 -20.550819
v 5.4058127 1.7763568e-15 -20.550819
v 11.139955 -0.25 14.622688
v 11.139955 1.7763568e-15 14.622688
v 18.59296 -0.25 10.269779
v 18.59296 1.7763568e-15 10.269779
v 25.356823 -0.25 4.9835291
v 25.356823 1.7763568e-15 4.9835291
vt 0 0
vt 0 0.50155389
vt 0.083333336 0
vt 0.083333336 0.50155389
vt 0.083333336 0
vt 0.083333336 0.50155389
vt 0.16666667 0
vt 0.16666667 0.50155389
vt 0.16666667 0
vt 0.16666667 0.50155389
vt 0.25 0
vt 0.25 0.50155389
vt 0.25 0
vt 0.25 0.50155389
vt 0.33333334 0
vt 0.33333334 0.50155389
vt 0.33333334 0
vt 0.33333334 0.50155389
vt 0.41666666 0
vt 0.41666666 0.50155389
vt 0.41666666 0
vt 0.41666666 0.50155389
vt 0.5 0
vt 0.5 0.50155389
vt 0.5 0
vt 0.5 0.50155389
vt 0.58333331 0
vt 0.58333331 0.50155389
vt 0.58333331 0
vt 0.58333331 0.50155389
vt 0.66666669 0
vt 0.66666669 0.50155389
vt 0.66666669 0
vt 0.66666669 0.50155389
vt 0.75 0
vt 0.75 0.50155389
vt 0.75 0
vt 0.75 0.50155389
vt 0.83333331 0
vt 0.83333331 0.50155389
vt 0.83333331 0
vt 0.83333331 0.50155389
vt 0.91666669 0
vt 0.91666669 0.50155389
vt 0.91666669 0
vt 0.91666669 0.50155389
vt 1 0
vt 1 0.50155389
vt 0.31273383 0.99999487
vt 0.31273383 0.59711307
vt 0.26971975 0.59711069
vt 0.23766869 0.58889753
vt 0.20875472 0.57189548
vt 0.18102446 0.54554087
vt 0.14760245 0.50155437
vt 0 0.81902105
vt 0.050040714 0.88474458
vt 0.10517988 0.93886399
vt 0.18594632 0.9856022
vt 0.24920909 1
vt 0.31273383 0.5015595
vt 0.31273383 0.9044413
vt 0.26971975 0.90444368
vt 0.23766869 0.91265684
vt 0.20875472 0.92965889
vt 0.18102446 0.9560135
vt 0.14760245 1
vt 0 0.68253332
vt 0.050040714 0.61680979
vt 0.10517988 0.56269038
vt 0.18594632 0.51595217
vt 0.24920909 0.50155437
vn -1 0 -9.4348131e-16
vn -1 0 -9.4348131e-16
vn -1 0 -9.4348131e-16
vn -1 0 -9.4348131e-16
vn -3.3197433e-05 0 -1
vn -3.3197433e-05 0 -1
vn -3.3197433e-05 0 -1
vn -3.3197433e-05 0 -1
vn -0.15074085 0 -0.98857331
vn -0.15074085 0 -0.98857331
vn -0.15074085 0 -0.98857331
vn -0.15074085 0 -0.98857331
vn -0.33027008 0 -0.94388646
vn -0.33027008 0 -0.94388646
vn -0.33027008 0 -0.94388646
vn -0.33027008 0 -0.94388646
vn -0.49226499 0 -0.87044537
vn -0.49226499 0 -0.87044537
vn -0.49226499 0 -0.87044537
vn -0.49226499 0 -0.87044537
vn -0.61657029 0 -0.78729987
vn -0.61657029 0 -0.78729987
vn -0.61657029 0 -0.78729987
vn -0.61657029 0 -0.78729987
vn 0.78798991 0 -0.61568815
vn 0.78798991 0 -0.61568815
vn 0.78798991 0 -0.61568815
vn 0.78798991 0 -0.61568815
vn 0.61578739 0 0.78791237
vn 0.61578739 0 0.78791237
vn 0.61578739 0 0.78791237
vn 0.61578739 0 0.78791237
vn 0.50433111 0 0.86351037
vn 0.50433111 0 0.86351037
vn 0.50433111 0 0.86351037
vn 0.50433111 0 0.86351037
vn 0.32558447 0 0.94551295
vn 0.32558447 0 0.94551295
vn 0.32558447 0 0.94551295
vn 0.32558447 0 0.94551295
vn 0.13420132 0 0.9909541
vn 0.13420132 0 0.9909541
vn 0.13420132 0 0.9909541
vn 0.13420132 0 0.9909541
vn -4.8159163e-05 0 1
vn -4.8159163e-05 0 1
vn -4.8159163e-05 0 1
vn -4.8159163e-05 0 1
vn 0 1 0
vn 0 1 0
vn 0 1 0
vn 0 1 0
vn 0 1 0
vn 0 1 0
vn 0 1 0
vn 0 1 0
vn 0 1 0
vn 0 1 0
vn 0 1 0
vn 0 1 0
vn 0 -1 0
vn 0 -1 0
vn 0 -1 0
vn 0 -1 0
vn 0 -1 0
vn 0 -1 0
vn 0 -1 0
vn 0 -1 0
vn 0 -1 0
vn 0 -1 0
vn 0 -1 0
vn 0 -1 0
f 2/1/1 4/3/3 3/4/4 1/2/2
f 4/5/5 6/7/7 5/8/8 3/6/6
f 6/9/9 10/11/11 9/12/12 5/10/10
f 10/13/13 12/15/15 11/16/16 9/14/14
f 12/17/17 16/19/19 15/20/20 11/18/18
f 16/21/21 18/23/23 17/24/24 15/22/22
f 18/25/25 24/27/27 23/28/28 17/26/26
f 24/29/29 22/31/31 21/32/32 23/30/30
f 22/33/33 20/35/35 19/36/36 21/34/34
f 20/37/37 14/39/39 13/40/40 19/38/38
f 14/41/41 8/43/43 7/44/44 13/42/42
f 8/45/45 2/47/47 1/48/48 7/46/46
f 10/52/52 14/59/59 20/58/58
f 8/60/60 14/59/59 10/52/52
f 22/57/57 12/53/53 20/58/58
f 16/54/54 22/57/57 24/56/56
f 6/51/51 2/49/49 8/60/60
f 8/60/60 10/52/52 6/51/51
f 2/49/49 6/51/51 4/50/50
f 24/56/56 18/55/55 16/54/54
f 22/57/57 16/54/54 12/53/53
f 20/58/58 12/53/53 10/52/52
f 9/64/64 19/70/70 13/71/71
f 7/72/72 9/64/64 13/71/71
f 21/69/69 19/70/70 11/65/65
f 15/66/66 23/68/68 21/69/69
f 5/63/63 7/72/72 1/61/61
f 7/72/72 5/63/63 9/64/64
f 1/61/61 3/62/62 5/63/63
f 23/68/68 15/66/66 17/67/67
f 21/69/69 11/65/65 15/66/66
f 19/70/70 9/64/64 11/65/65
