# Rhino

g object_1
v 2.7468472 7.0379553 -14.075709
v 2.7339401 7.1306419 -14.071344
v 2.6913202 7.2180419 -14.042586
v 2.6258383 7.277935 -13.993524
v 2.5543902 7.3001857 -13.937162
v 2.4826565 7.2874231 -13.878274
v 2.4162691 7.236268 -13.821194
v 2.3722701 7.1546078 -13.780231
v 2.3578663 7.0637312 -13.762613
v 2.3707731 6.9710445 -13.766978
v 2.4133933 6.8836441 -13.795736
v 2.4788752 6.823751 -13.8448
v 2.5503232 6.8015003 -13.90116
v 2.622057 6.8142629 -13.960049
v 2.6884444 6.865418 -14.017129
v 2.7324431 6.9470782 -14.058092
v 2.7468472 7.0379553 -14.075709
v 11.228339 7.725419 -3.595171
v 2.7324431 6.9470782 -14.058092
v 11.213935 7.634542 -3.5775535
v 2.6884444 6.865418 -14.017129
v 11.169936 7.5528817 -3.5365906
v 2.622057 6.8142629 -13.960049
v 11.103549 7.5017271 -3.4795103
v 2.5503232 6.8015003 -13.90116
v 11.031815 7.4889641 -3.4206219
v 2.4788752 6.823751 -13.8448
v 10.960367 7.5112152 -3.3642612
v 2.4133933 6.8836441 -13.795736
v 10.894885 7.5711083 -3.3151979
v 2.3707731 6.9710445 -13.766978
v 10.852265 7.6585083 -3.2864401
v 2.3578663 7.0637312 -13.762613
v 10.839358 7.751195 -3.2820747
v 2.3722701 7.1546078 -13.780231
v 10.853762 7.842072 -3.2996922
v 2.4162691 7.236268 -13.821194
v 10.89776 7.9237323 -3.3406553
v 2.4826565 7.2874231 -13.878274
v 10.964149 7.9748869 -3.3977354
v 2.5543902 7.3001857 -13.937162
v 11.035882 7.9876499 -3.456624
v 2.6258383 7.277935 -13.993524
v 11.10733 7.9653993 -3.5129845
v 2.6913202 7.2180419 -14.042586
v 11.172812 7.9055057 -3.562048
v 2.7339401 7.1306419 -14.071344
v 11.215432 7.8181057 -3.5908058
v 2.7468472 7.0379553 -14.075709
v 11.228339 7.725419 -3.595171
v 11.228339 7.725419 -3.595171
v 11.215432 7.8181057 -3.5908058
v 11.172812 7.9055057 -3.562048
v 11.10733 7.9653993 -3.5129845
v 11.035882 7.9876499 -3.456624
v 10.964149 7.9748869 -3.3977354
v 10.89776 7.9237323 -3.3406553
v 10.853762 7.842072 -3.2996922
v 10.839358 7.751195 -3.2820747
v 10.852265 7.6585083 -3.2864401
v 10.894885 7.5711083 -3.3151979
v 10.960367 7.5112152 -3.3642612
v 11.031815 7.4889641 -3.4206219
v 11.103549 7.5017271 -3.4795103
v 11.169936 7.5528817 -3.5365906
v 11.213935 7.634542 -3.5775535
vt 0.035524074 0.017550778
vt 0.034610577 0.024424747
vt 0.030962551 0.030904733
vt 0.025142824 0.035343025
vt 0.018668348 0.036988918
vt 0.012066601 0.036037754
vt 0.005843238 0.032239299
vt 0.0015807105 0.026179595
vt 0 0.01943814
vt 0.00091349497 0.01256417
vt 0.004561522 0.0060841851
vt 0.010381249 0.0016458915
vt 0.016855728 0
vt 0.023457471 0.00095116312
vt 0.029680835 0.0047496175
vt 0.033943363 0.010809322
vt 0.036988918 0
vt 0.036988918 0.99853516
vt 0.044122707 0
vt 0.044122707 0.99853516
vt 0.0512565 0
vt 0.0512565 0.99853516
vt 0.05839029 0
vt 0.05839029 0.99853516
vt 0.065524079 0
vt 0.065524079 0.99853516
vt 0.072657868 0
vt 0.072657868 0.99853516
vt 0.079791665 0
vt 0.079791665 0.99853516
vt 0.086925454 0
vt 0.086925454 0.99853516
vt 0.094059244 0
vt 0.094059244 0.99853516
vt 0.10119303 0
vt 0.10119303 0.99853516
vt 0.10832683 0
vt 0.10832683 0.99853516
vt 0.11546062 0
vt 0.11546062 0.99853516
vt 0.12259441 0
vt 0.12259441 0.99853516
vt 0.1297282 0
vt 0.1297282 0.99853516
vt 0.13686199 0
vt 0.13686199 0.99853516
vt 0.14399578 0
vt 0.14399578 0.99853516
vt 0.15112957 0
vt 0.15112957 0.99853516
vt 0.035524074 0.51755077
vt 0.034610577 0.52442473
vt 0.030962551 0.53090471
vt 0.025142824 0.53534305
vt 0.018668348 0.53698891
vt 0.012066601 0.53603774
vt 0.005843238 0.53223932
vt 0.0015807105 0.52617961
vt 0 0.51943815
vt 0.00091349497 0.51256418
vt 0.004561522 0.5060842
vt 0.010381249 0.50164586
vt 0.016855728 0.5
vt 0.023457471 0.50095117
vt 0.029680835 0.5047496
vt 0.033943363 0.5108093
vn -0.62825865 -0.050923254 -0.77633619
vn -0.62825865 -0.050923254 -0.77633619
vn -0.62825865 -0.050923254 -0.77633619
vn -0.62825865 -0.050923254 -0.77633619
vn -0.62825865 -0.050923254 -0.77633619
vn -0.62825865 -0.050923254 -0.77633619
vn -0.62825865 -0.050923254 -0.77633619
vn -0.62825865 -0.050923254 -0.77633619
vn -0.62825865 -0.050923254 -0.77633619
vn -0.62825865 -0.050923254 -0.77633619
vn -0.62825865 -0.050923254 -0.77633619
vn -0.62825865 -0.050923254 -0.77633619
vn -0.62825865 -0.050923254 -0.77633619
vn -0.62825865 -0.050923254 -0.77633619
vn -0.62825865 -0.050923254 -0.77633619
vn -0.62825865 -0.050923254 -0.77633619
vn 0.77796203 -0.05155177 -0.62619287
vn 0.77796203 -0.05155177 -0.62619287
vn 0.72034603 -0.41505927 -0.55572242
vn 0.72034603 -0.41505927 -0.55572242
vn 0.5443508 -0.74170053 -0.39187056
vn 0.5443508 -0.74170053 -0.39187056
vn 0.27880105 -0.94632 -0.16354962
vn 0.27880105 -0.94632 -0.16354962
vn -0.0081337253 -0.99737114 0.072004206
vn -0.0081337253 -0.99737114 0.072004206
vn -0.29392636 -0.90836811 0.29744694
vn -0.29392636 -0.90836811 0.29744694
vn -0.55585361 -0.66879529 0.49369988
vn -0.55585361 -0.66879529 0.49369988
vn -0.72633398 -0.31919482 0.60873115
vn -0.72633398 -0.31919482 0.60873115
vn -0.77796203 0.05155177 0.62619287
vn -0.77796203 0.05155177 0.62619287
vn -0.72034603 0.41505927 0.55572242
vn -0.72034603 0.41505927 0.55572242
vn -0.5443508 0.74170053 0.39187056
vn -0.5443508 0.74170053 0.39187056
vn -0.27880105 0.94632 0.16354962
vn -0.27880105 0.94632 0.16354962
vn 0.0081337253 0.99737114 -0.072004206
vn 0.0081337253 0.99737114 -0.072004206
vn 0.29392636 0.90836811 -0.29744694
vn 0.29392636 0.90836811 -0.29744694
vn 0.55585361 0.66879529 -0.49369988
vn 0.55585361 0.66879529 -0.49369988
vn 0.72633398 0.31919482 -0.60873115
vn 0.72633398 0.31919482 -0.60873115
vn 0.77796203 -0.05155177 -0.62619287
vn 0.77796203 -0.05155177 -0.62619287
vn 0.62825865 0.050923254 0.77633619
vn 0.62825865 0.050923254 0.77633619
vn 0.62825865 0.050923254 0.77633619
vn 0.62825865 0.050923254 0.77633619
vn 0.62825865 0.050923254 0.77633619
vn 0.62825865 0.050923254 0.77633619
vn 0.62825865 0.050923254 0.77633619
vn 0.62825865 0.050923254 0.77633619
vn 0.62825865 0.050923254 0.77633619
vn 0.62825865 0.050923254 0.77633619
vn 0.62825865 0.050923254 0.77633619
vn 0.62825865 0.050923254 0.77633619
vn 0.62825865 0.050923254 0.77633619
vn 0.62825865 0.050923254 0.77633619
vn 0.62825865 0.050923254 0.77633619
vn 0.62825865 0.050923254 0.77633619
f 11/11/11 10/10/10 16/16/16
f 15/15/15 12/12/12 11/11/11
f 1/1/1 10/10/10 9/9/9
f 8/8/8 7/7/7 3/3/3
f 7/7/7 6/6/6 4/4/4
f 9/9/9 8/8/8 2/2/2
f 14/14/14 13/13/13 12/12/12
f 11/11/11 16/16/16 15/15/15
f 16/16/16 10/10/10 1/1/1
f 1/1/1 9/9/9 2/2/2
f 4/4/4 6/6/6 5/5/5
f 3/3/3 7/7/7 4/4/4
f 8/8/8 3/3/3 2/2/2
f 12/12/12 15/15/15 14/14/14
f 19/19/19 17/17/17 18/18/18 20/20/20
f 23/23/23 21/21/21 22/22/22 24/24/24
f 21/21/21 19/19/19 20/20/20 22/22/22
f 27/27/27 25/25/25 26/26/26 28/28/28
f 31/31/31 29/29/29 30/30/30 32/32/32
f 29/29/29 27/27/27 28/28/28 30/30/30
f 25/25/25 23/23/23 24/24/24 26/26/26
f 33/33/33 31/31/31 32/32/32 34/34/34
f 37/37/37 35/35/35 36/36/36 38/38/38
f 41/41/41 39/39/39 40/40/40 42/42/42
f 39/39/39 37/37/37 38/38/38 40/40/40
f 45/45/45 43/43/43 44/44/44 46/46/46
f 49/49/49 47/47/47 48/48/48 50/50/50
f 47/47/47 45/45/45 46/46/46 48/48/48
f 43/43/43 41/41/41 42/42/42 44/44/44
f 35/35/35 33/33/33 34/34/34 36/36/36
f 61/61/61 59/59/59 60/60/60
f 61/61/61 62/62/62 63/63/63
f 63/63/63 57/57/57 61/61/61
f 58/58/58 59/59/59 61/61/61
f 57/57/57 58/58/58 61/61/61
f 56/56/56 57/57/57 64/64/64
f 64/64/64 57/57/57 63/63/63
f 51/51/51 64/64/64 65/65/65
f 65/65/65 66/66/66 51/51/51
f 56/56/56 51/51/51 55/55/55
f 52/52/52 54/54/54 55/55/55
f 54/54/54 52/52/52 53/53/53
f 52/52/52 55/55/55 51/51/51
f 64/64/64 51/51/51 56/56/56
