# Rhino

g object_1
v 8.752471 7.6665444 -6.7356949
v 8.7552624 7.403295 -6.7300634
v 9.3806381 7.7174602 -5.9594727
v 9.3834286 7.4542108 -5.9538412
v 9.3806381 7.7174602 -5.9594727
v 9.3834286 7.4542108 -5.9538412
v 8.9142551 7.7168264 -5.5819917
v 8.9170465 7.453577 -5.5763597
v 8.9142551 7.7168264 -5.5819917
v 8.9170465 7.453577 -5.5763597
v 8.2860889 7.6659102 -6.3582139
v 8.2888794 7.4026613 -6.352582
v 8.2860889 7.6659102 -6.3582139
v 8.2888794 7.4026613 -6.352582
v 8.752471 7.6665444 -6.7356949
v 8.7552624 7.403295 -6.7300634
v 8.752471 7.6665444 -6.7356949
v 9.3806381 7.7174602 -5.9594727
v 8.9142551 7.7168264 -5.5819917
v 8.2860889 7.6659102 -6.3582139
v 8.7552624 7.403295 -6.7300634
v 9.3834286 7.4542108 -5.9538412
v 8.9170465 7.453577 -5.5763597
v 8.2888794 7.4026613 -6.352582
vt 0 0
vt 0 0.58995169
vt 0.33333334 0
vt 0.33333334 0.58995169
vt 0.33333334 0
vt 0.33333334 0.58995169
vt 0.5 0
vt 0.5 0.58995169
vt 0.5 0
vt 0.5 0.58995169
vt 0.83333331 0
vt 0.83333331 0.58995169
vt 0.83333331 0
vt 0.83333331 0.58995169
vt 1 0
vt 1 0.58995169
vt 0 1
vt 0.31243947 0.99986881
vt 0.31243947 0.58995229
vt 0 0.59008342
vt 0.68756056 0.58995229
vt 1 0.59008342
vt 1 1
vt 0.68756056 0.99986881
vn 0.77750129 -0.0052096932 -0.62885976
vn 0.77750129 -0.0052096932 -0.62885976
vn 0.77750129 -0.0052096932 -0.62885976
vn 0.77750129 -0.0052096932 -0.62885976
vn 0.62894136 0.023292802 0.77710372
vn 0.62894136 0.023292802 0.77710372
vn 0.62894136 0.023292802 0.77710372
vn 0.62894136 0.023292802 0.77710372
vn -0.77750129 0.0052096932 0.62885976
vn -0.77750129 0.0052096932 0.62885976
vn -0.77750129 0.0052096932 0.62885976
vn -0.77750129 0.0052096932 0.62885976
vn -0.62894136 -0.023292802 -0.77710372
vn -0.62894136 -0.023292802 -0.77710372
vn -0.62894136 -0.023292802 -0.77710372
vn -0.62894136 -0.023292802 -0.77710372
vn -0.032857664 0.99870199 -0.038918767
vn -0.032857664 0.99870199 -0.038918767
vn -0.032857664 0.99870199 -0.038918767
vn -0.032857664 0.99870199 -0.038918767
vn 0.032857664 -0.99870199 0.038918767
vn 0.032857664 -0.99870199 0.038918767
vn 0.032857664 -0.99870199 0.038918767
vn 0.032857664 -0.99870199 0.038918767
f 1/1/1 3/3/3 4/4/4 2/2/2
f 5/5/5 7/7/7 8/8/8 6/6/6
f 9/9/9 11/11/11 12/12/12 10/10/10
f 13/13/13 15/15/15 16/16/16 14/14/14
f 18/18/18 17/17/17 20/20/20
f 20/20/20 19/19/19 18/18/18
f 22/22/22 24/24/24 21/21/21
f 24/24/24 22/22/22 23/23/23
