# Rhino

g object_1
v -0.60533494 6.9801583 -11.448189
v -0.59756815 6.7171683 -11.437441
v -0.1221157 7.0577416 -10.576303
v -0.11434887 6.7947516 -10.565554
v -0.1221157 7.0577416 -10.576303
v -0.11434887 6.7947516 -10.565554
v -0.64658815 7.0503917 -10.284961
v -0.6388213 6.7874017 -10.274213
v -0.64658815 7.0503917 -10.284961
v -0.6388213 6.7874017 -10.274213
v -1.1298074 6.9728084 -11.156848
v -1.1220406 6.7098184 -11.146099
v -1.1298074 6.9728084 -11.156848
v -1.1220406 6.7098184 -11.146099
v -0.60533494 6.9801583 -11.448189
v -0.59756815 6.7171683 -11.437441
v -0.60533494 6.9801583 -11.448189
v -0.1221157 7.0577416 -10.576303
v -0.64658815 7.0503917 -10.284961
v -1.1298074 6.9728084 -11.156848
v -0.59756815 6.7171683 -11.437441
v -0.11434887 6.7947516 -10.565554
v -0.6388213 6.7874017 -10.274213
v -1.1220406 6.7098184 -11.146099
vt 0 0
vt 0 0.58995169
vt 0.33333334 0
vt 0.33333334 0.58995169
vt 0.33333334 0
vt 0.33333334 0.58995169
vt 0.5 0
vt 0.5 0.58995169
vt 0.5 0
vt 0.5 0.58995169
vt 0.83333331 0
vt 0.83333331 0.58995169
vt 0.83333331 0
vt 0.83333331 0.58995169
vt 1 0
vt 1 0.58995169
vt 0 1
vt 0.31243947 0.99986881
vt 0.31243947 0.58995229
vt 0 0.59008342
vt 0.68756056 0.58995229
vt 1 0.59008342
vt 1 1
vt 0.68756056 0.99986881
vn 0.87440979 0.005994936 -0.48515105
vn 0.87440979 0.005994936 -0.48515105
vn 0.87440979 0.005994936 -0.48515105
vn 0.87440979 0.005994936 -0.48515105
vn 0.48445868 0.050003882 0.87338388
vn 0.48445868 0.050003882 0.87338388
vn 0.48445868 0.050003882 0.87338388
vn 0.48445868 0.050003882 0.87338388
vn -0.87440979 -0.005994936 0.48515105
vn -0.87440979 -0.005994936 0.48515105
vn -0.87440979 -0.005994936 0.48515105
vn -0.87440979 -0.005994936 0.48515105
vn -0.48445868 -0.050003882 -0.87338388
vn -0.48445868 -0.050003882 -0.87338388
vn -0.48445868 -0.050003882 -0.87338388
vn -0.48445868 -0.050003882 -0.87338388
vn -0.048359249 0.99690968 -0.061906558
vn -0.048359249 0.99690968 -0.061906558
vn -0.048359249 0.99690968 -0.061906558
vn -0.048359249 0.99690968 -0.061906558
vn 0.048359249 -0.99690968 0.061906558
vn 0.048359249 -0.99690968 0.061906558
vn 0.048359249 -0.99690968 0.061906558
vn 0.048359249 -0.99690968 0.061906558
f 1/1/1 3/3/3 4/4/4 2/2/2
f 5/5/5 7/7/7 8/8/8 6/6/6
f 9/9/9 11/11/11 12/12/12 10/10/10
f 13/13/13 15/15/15 16/16/16 14/14/14
f 18/18/18 17/17/17 20/20/20
f 20/20/20 19/19/19 18/18/18
f 22/22/22 24/24/24 21/21/21
f 24/24/24 22/22/22 23/23/23
