# Rhino

g object_1
v 4.8880973 8.1008797 -1.6878754
v 4.9123659 7.3521047 -1.6525362
v 5.250875 8.1489964 -1.0333798
v 5.2751441 7.4002218 -0.9980405
v 5.250875 8.1489964 -1.0333798
v 5.2751441 7.4002218 -0.9980405
v 4.5951629 8.1432695 -0.66936505
v 4.6194315 7.394495 -0.63402575
v 4.5951629 8.1432695 -0.66936505
v 4.6194315 7.394495 -0.63402575
v 4.2323847 8.0951529 -1.3238606
v 4.2566533 7.3463778 -1.2885214
v 4.2323847 8.0951529 -1.3238606
v 4.2566533 7.3463778 -1.2885214
v 4.8880973 8.1008797 -1.6878754
v 4.9123659 7.3521047 -1.6525362
v 4.8880973 8.1008797 -1.6878754
v 5.250875 8.1489964 -1.0333798
v 4.5951629 8.1432695 -0.66936505
v 4.2323847 8.0951529 -1.3238606
v 4.9123659 7.3521047 -1.6525362
v 5.2751441 7.4002218 -0.9980405
v 4.6194315 7.394495 -0.63402575
v 4.2566533 7.3463778 -1.2885214
vt 0 0
vt 0 0.66669029
vt 0.33333334 0
vt 0.33333334 0.66669029
vt 0.33333334 0
vt 0.33333334 0.66669029
vt 0.5 0
vt 0.5 0.66669029
vt 0.5 0
vt 0.5 0.66669029
vt 0.83333331 0
vt 0.83333331 0.66669029
vt 0.83333331 0
vt 0.83333331 0.66669029
vt 1 0
vt 1 0.66669029
vt 0.25007144 1
vt 0.2500264 0.66669095
vt 0 0.66669095
vt 4.503128e-05 1
vt 1 0.66669095
vt 0.999955 1
vt 0.74992853 1
vt 0.7499736 0.66669095
vn 0.8744452 0.0054472694 -0.48509374
vn 0.8744452 0.0054472694 -0.48509374
vn 0.8744452 0.0054472694 -0.48509374
vn 0.8744452 0.0054472694 -0.48509374
vn 0.48420146 0.056900665 0.87310439
vn 0.48420146 0.056900665 0.87310439
vn 0.48420146 0.056900665 0.87310439
vn 0.48420146 0.056900665 0.87310439
vn -0.8744452 -0.0054472694 0.48509374
vn -0.8744452 -0.0054472694 0.48509374
vn -0.8744452 -0.0054472694 0.48509374
vn -0.8744452 -0.0054472694 0.48509374
vn -0.48420146 -0.056900665 -0.87310439
vn -0.48420146 -0.056900665 -0.87310439
vn -0.48420146 -0.056900665 -0.87310439
vn -0.48420146 -0.056900665 -0.87310439
vn -0.037809141 0.99790978 -0.052407432
vn -0.037809141 0.99790978 -0.052407432
vn -0.037809141 0.99790978 -0.052407432
vn -0.037809141 0.99790978 -0.052407432
vn 0.037809141 -0.99790978 0.052407432
vn 0.037809141 -0.99790978 0.052407432
vn 0.037809141 -0.99790978 0.052407432
vn 0.037809141 -0.99790978 0.052407432
f 1/1/1 3/3/3 4/4/4 2/2/2
f 5/5/5 7/7/7 8/8/8 6/6/6
f 9/9/9 11/11/11 12/12/12 10/10/10
f 13/13/13 15/15/15 16/16/16 14/14/14
f 18/18/18 17/17/17 20/20/20
f 20/20/20 19/19/19 18/18/18
f 22/22/22 24/24/24 21/21/21
f 24/24/24 22/22/22 23/23/23
