# Rhino

g object_1
v 10.219423 8.0284147 -5.0442696
v 10.230309 7.2787685 -5.0239439
v 10.69075 8.0565166 -4.4617324
v 10.701635 7.3068705 -4.4414067
v 10.69075 8.0565166 -4.4617324
v 10.701635 7.3068705 -4.4414067
v 10.107712 8.0591898 -3.9899716
v 10.118598 7.3095427 -3.969646
v 10.107712 8.0591898 -3.9899716
v 10.118598 7.3095427 -3.969646
v 9.6363859 8.0310869 -4.5725093
v 9.6472712 7.2814407 -4.5521832
v 9.6363859 8.0310869 -4.5725093
v 9.6472712 7.2814407 -4.5521832
v 10.219423 8.0284147 -5.0442696
v 10.230309 7.2787685 -5.0239439
v 10.219423 8.0284147 -5.0442696
v 10.69075 8.0565166 -4.4617324
v 10.107712 8.0591898 -3.9899716
v 9.6363859 8.0310869 -4.5725093
v 10.230309 7.2787685 -5.0239439
v 10.701635 7.3068705 -4.4414067
v 10.118598 7.3095427 -3.969646
v 9.6472712 7.2814407 -4.5521832
vt 0 0
vt 0 0.66669029
vt 0.33333334 0
vt 0.33333334 0.66669029
vt 0.33333334 0
vt 0.33333334 0.66669029
vt 0.5 0
vt 0.5 0.66669029
vt 0.5 0
vt 0.5 0.66669029
vt 0.83333331 0
vt 0.83333331 0.66669029
vt 0.83333331 0
vt 0.83333331 0.66669029
vt 1 0
vt 1 0.66669029
vt 0.25007144 1
vt 0.2500264 0.66669095
vt 0 0.66669095
vt 4.503128e-05 1
vt 1 0.66669095
vt 0.999955 1
vt 0.74992853 1
vt 0.7499736 0.66669095
vn 0.77753204 -0.0057589635 -0.62881696
vn 0.77753204 -0.0057589635 -0.62881696
vn 0.77753204 -0.0057589635 -0.62881696
vn 0.77753204 -0.0057589635 -0.62881696
vn 0.62881589 0.030197557 0.77696764
vn 0.62881589 0.030197557 0.77696764
vn 0.62881589 0.030197557 0.77696764
vn 0.62881589 0.030197557 0.77696764
vn -0.77753204 0.0057589635 0.62881696
vn -0.77753204 0.0057589635 0.62881696
vn -0.77753204 0.0057589635 0.62881696
vn -0.77753204 0.0057589635 0.62881696
vn -0.62881589 -0.030197557 -0.77696764
vn -0.62881589 -0.030197557 -0.77696764
vn -0.62881589 -0.030197557 -0.77696764
vn -0.62881589 -0.030197557 -0.77696764
vn -0.020805361 0.99929118 -0.031373352
vn -0.020805361 0.99929118 -0.031373352
vn -0.020805361 0.99929118 -0.031373352
vn -0.020805361 0.99929118 -0.031373352
vn 0.020805361 -0.99929118 0.031373352
vn 0.020805361 -0.99929118 0.031373352
vn 0.020805361 -0.99929118 0.031373352
vn 0.020805361 -0.99929118 0.031373352
f 1/1/1 3/3/3 4/4/4 2/2/2
f 5/5/5 7/7/7 8/8/8 6/6/6
f 9/9/9 11/11/11 12/12/12 10/10/10
f 13/13/13 15/15/15 16/16/16 14/14/14
f 18/18/18 17/17/17 20/20/20
f 20/20/20 19/19/19 18/18/18
f 22/22/22 24/24/24 21/21/21
f 24/24/24 22/22/22 23/23/23
