# Rhino

g object_1
v -10.557942 6.733263 -9.2085409
v -10.575496 6.8250313 -9.215395
v -10.631167 6.9095488 -9.2216959
v -10.71592 6.965065 -9.2258234
v -10.807944 6.9825702 -9.227107
v -10.899968 6.9650669 -9.2257757
v -10.98472 6.9095521 -9.2216053
v -11.04039 6.8250351 -9.2152748
v -11.057942 6.7332673 -9.2084122
v -11.040388 6.6414995 -9.2015581
v -10.984717 6.5569816 -9.1952562
v -10.899963 6.5014653 -9.1911297
v -10.80794 6.4839606 -9.1898451
v -10.715916 6.5014639 -9.1911774
v -10.631164 6.5569787 -9.1953478
v -10.575494 6.6414957 -9.2016783
v -10.557942 6.733263 -9.2085409
v -10.553853 7.7393355 4.2539177
v -10.575494 6.6414957 -9.2016783
v -10.571404 7.6475677 4.2607803
v -10.631164 6.5569787 -9.1953478
v -10.627074 7.5630507 4.2671108
v -10.715916 6.5014639 -9.1911774
v -10.711827 7.5075359 4.2712817
v -10.80794 6.4839606 -9.1898451
v -10.80385 7.4900327 4.2726135
v -10.899963 6.5014653 -9.1911297
v -10.895874 7.5075378 4.2713294
v -10.984717 6.5569816 -9.1952562
v -10.980628 7.5630541 4.2672024
v -11.040388 6.6414995 -9.2015581
v -11.036299 7.647572 4.2609005
v -11.057942 6.7332673 -9.2084122
v -11.053853 7.7393398 4.2540469
v -11.04039 6.8250351 -9.2152748
v -11.036301 7.8311071 4.2471848
v -10.98472 6.9095521 -9.2216053
v -10.980632 7.9156241 4.2408543
v -10.899968 6.9650669 -9.2257757
v -10.895879 7.971139 4.2366834
v -10.807944 6.9825702 -9.227107
v -10.803856 7.9886422 4.2353516
v -10.71592 6.965065 -9.2258234
v -10.711832 7.9711375 4.2366357
v -10.631167 6.9095488 -9.2216959
v -10.627078 7.9156213 4.2407627
v -10.575496 6.8250313 -9.215395
v -10.571407 7.8311033 4.2470646
v -10.557942 6.733263 -9.2085409
v -10.553853 7.7393355 4.2539177
v -10.553853 7.7393355 4.2539177
v -10.571407 7.8311033 4.2470646
v -10.627078 7.9156213 4.2407627
v -10.711832 7.9711375 4.2366357
v -10.803856 7.9886422 4.2353516
v -10.895879 7.971139 4.2366834
v -10.980632 7.9156241 4.2408543
v -11.036301 7.8311071 4.2471848
v -11.053853 7.7393398 4.2540469
v -11.036299 7.647572 4.2609005
v -10.980628 7.5630541 4.2672024
v -10.895874 7.5075378 4.2713294
v -10.80385 7.4900327 4.2726135
v -10.711827 7.5075359 4.2712817
v -10.627074 7.5630507 4.2671108
v -10.571404 7.6475677 4.2607803
vt 0.01843914 0.53701109
vt 0.011850188 0.53596699
vt 0.0056765792 0.53208131
vt 0.0014930426 0.52596211
vt 0 0.51919901
vt 0.0010027179 0.51233852
vt 0.0047346666 0.50591052
vt 0.010611651 0.50155455
vt 0.017107075 0.5
vt 0.023696024 0.50104403
vt 0.029869637 0.50492978
vt 0.034053173 0.51104897
vt 0.035546213 0.51781207
vt 0.034543499 0.52467251
vt 0.030811548 0.53110057
vt 0.024934564 0.53545648
vt 0.037011057 0
vt 0.037011057 0.99853516
vt 0.04414485 0
vt 0.04414485 0.99853516
vt 0.05127864 0
vt 0.05127864 0.99853516
vt 0.058412433 0
vt 0.058412433 0.99853516
vt 0.065546222 0
vt 0.065546222 0.99853516
vt 0.072680011 0
vt 0.072680011 0.99853516
vt 0.079813801 0
vt 0.079813801 0.99853516
vt 0.086947598 0
vt 0.086947598 0.99853516
vt 0.094081387 0
vt 0.094081387 0.99853516
vt 0.10121518 0
vt 0.10121518 0.99853516
vt 0.10834897 0
vt 0.10834897 0.99853516
vt 0.11548276 0
vt 0.11548276 0.99853516
vt 0.12261655 0
vt 0.12261655 0.99853516
vt 0.12975034 0
vt 0.12975034 0.99853516
vt 0.13688414 0
vt 0.13688414 0.99853516
vt 0.14401792 0
vt 0.14401792 0.99853516
vt 0.15115172 0
vt 0.15115172 0.99853516
vt 0.01843914 0.037011057
vt 0.011850188 0.035967018
vt 0.0056765792 0.03208128
vt 0.0014930426 0.025962105
vt 0 0.019199008
vt 0.0010027179 0.012338531
vt 0.0047346666 0.0059105079
vt 0.010611651 0.0015545706
vt 0.017107075 0
vt 0.023696024 0.0010440387
vt 0.029869637 0.00492978
vt 0.034053173 0.011048952
vt 0.035546213 0.017812051
vt 0.034543499 0.024672529
vt 0.030811548 0.031100551
vt 0.024934564 0.03545649
vn -0.000258446 -0.07452403 -0.9972192
vn -0.000258446 -0.07452403 -0.9972192
vn -0.000258446 -0.07452403 -0.9972192
vn -0.000258446 -0.07452403 -0.9972192
vn -0.000258446 -0.07452403 -0.9972192
vn -0.000258446 -0.07452403 -0.9972192
vn -0.000258446 -0.07452403 -0.9972192
vn -0.000258446 -0.07452403 -0.9972192
vn -0.000258446 -0.07452403 -0.9972192
vn -0.000258446 -0.07452403 -0.9972192
vn -0.000258446 -0.07452403 -0.9972192
vn -0.000258446 -0.07452403 -0.9972192
vn -0.000258446 -0.07452403 -0.9972192
vn -0.000258446 -0.07452403 -0.9972192
vn -0.000258446 -0.07452403 -0.9972192
vn -0.000258446 -0.07452403 -0.9972192
vn 0.99999994 -1.2160901e-05 -0.000302834
vn 0.99999994 -1.2160901e-05 -0.000302834
vn 0.92979211 -0.36708242 0.02715027
vn 0.92979211 -0.36708242 0.02715027
vn 0.70711416 -0.70514905 0.052482195
vn 0.70711416 -0.70514905 0.052482195
vn 0.3681044 -0.92720723 0.069179952
vn 0.3681044 -0.92720723 0.069179952
vn 1.0441327e-05 -0.9972192 0.074523866
vn 1.0441327e-05 -0.9972192 0.074523866
vn -0.368085 -0.92719829 0.069402896
vn -0.368085 -0.92719829 0.069402896
vn -0.70709938 -0.70513189 0.052910469
vn -0.70709938 -0.70513189 0.052910469
vn -0.92978442 -0.36705983 0.027713412
vn -0.92978442 -0.36705983 0.027713412
vn -0.99999994 1.2160901e-05 0.000302834
vn -0.99999994 1.2160901e-05 0.000302834
vn -0.92979211 0.36708242 -0.02715027
vn -0.92979211 0.36708242 -0.02715027
vn -0.70711416 0.70514905 -0.052482195
vn -0.70711416 0.70514905 -0.052482195
vn -0.3681044 0.92720723 -0.069179952
vn -0.3681044 0.92720723 -0.069179952
vn -1.0441327e-05 0.9972192 -0.074523866
vn -1.0441327e-05 0.9972192 -0.074523866
vn 0.368085 0.92719829 -0.069402896
vn 0.368085 0.92719829 -0.069402896
vn 0.70709938 0.70513189 -0.052910469
vn 0.70709938 0.70513189 -0.052910469
vn 0.92978442 0.36705983 -0.027713412
vn 0.92978442 0.36705983 -0.027713412
vn 0.99999994 -1.2160901e-05 -0.000302834
vn 0.99999994 -1.2160901e-05 -0.000302834
vn 0.000258446 0.07452403 0.9972192
vn 0.000258446 0.07452403 0.9972192
vn 0.000258446 0.07452403 0.9972192
vn 0.000258446 0.07452403 0.9972192
vn 0.000258446 0.07452403 0.9972192
vn 0.000258446 0.07452403 0.9972192
vn 0.000258446 0.07452403 0.9972192
vn 0.000258446 0.07452403 0.9972192
vn 0.000258446 0.07452403 0.9972192
vn 0.000258446 0.07452403 0.9972192
vn 0.000258446 0.07452403 0.9972192
vn 0.000258446 0.07452403 0.9972192
vn 0.000258446 0.07452403 0.9972192
vn 0.000258446 0.07452403 0.9972192
vn 0.000258446 0.07452403 0.9972192
vn 0.000258446 0.07452403 0.9972192
f 12/12/12 11/11/11 10/10/10
f 5/5/5 10/10/10 6/6/6
f 10/10/10 16/16/16 12/12/12
f 8/8/8 10/10/10 9/9/9
f 8/8/8 7/7/7 6/6/6
f 8/8/8 6/6/6 10/10/10
f 16/16/16 13/13/13 12/12/12
f 16/16/16 15/15/15 14/14/14
f 16/16/16 10/10/10 3/3/3
f 1/1/1 16/16/16 2/2/2
f 3/3/3 5/5/5 4/4/4
f 3/3/3 10/10/10 5/5/5
f 3/3/3 2/2/2 16/16/16
f 14/14/14 13/13/13 16/16/16
f 19/19/19 17/17/17 18/18/18 20/20/20
f 23/23/23 21/21/21 22/22/22 24/24/24
f 21/21/21 19/19/19 20/20/20 22/22/22
f 27/27/27 25/25/25 26/26/26 28/28/28
f 31/31/31 29/29/29 30/30/30 32/32/32
f 29/29/29 27/27/27 28/28/28 30/30/30
f 25/25/25 23/23/23 24/24/24 26/26/26
f 33/33/33 31/31/31 32/32/32 34/34/34
f 37/37/37 35/35/35 36/36/36 38/38/38
f 41/41/41 39/39/39 40/40/40 42/42/42
f 39/39/39 37/37/37 38/38/38 40/40/40
f 45/45/45 43/43/43 44/44/44 46/46/46
f 49/49/49 47/47/47 48/48/48 50/50/50
f 47/47/47 45/45/45 46/46/46 48/48/48
f 43/43/43 41/41/41 42/42/42 44/44/44
f 35/35/35 33/33/33 34/34/34 36/36/36
f 62/62/62 60/60/60 61/61/61
f 60/60/60 55/55/55 58/58/58
f 60/60/60 62/62/62 51/51/51
f 58/58/58 59/59/59 60/60/60
f 58/58/58 56/56/56 57/57/57
f 56/56/56 58/58/58 55/55/55
f 64/64/64 62/62/62 63/63/63
f 51/51/51 64/64/64 65/65/65
f 65/65/65 66/66/66 51/51/51
f 60/60/60 51/51/51 55/55/55
f 53/53/53 54/54/54 55/55/55
f 51/51/51 53/53/53 55/55/55
f 53/53/53 51/51/51 52/52/52
f 64/64/64 51/51/51 62/62/62
